<?xml version="1.0" encoding="utf-8"?>
<!-- Generator: Adobe Illustrator 16.0.0, SVG Export Plug-In . SVG Version: 6.00 Build 0)  -->
<!DOCTYPE svg PUBLIC "-//W3C//DTD SVG 1.1//EN" "http://www.w3.org/Graphics/SVG/1.1/DTD/svg11.dtd">
<svg version="1.1" id="Layer_1" xmlns="http://www.w3.org/2000/svg" xmlns:xlink="http://www.w3.org/1999/xlink" x="0px" y="0px"
	 width="242px" height="194px" viewBox="0 0 242 194" enable-background="new 0 0 242 194" xml:space="preserve">
<rect y="2" fill-rule="evenodd" clip-rule="evenodd" fill="#FFFFFF" width="240" height="192"/>
<path fill-rule="evenodd" clip-rule="evenodd" d="M90.576,106.115c-0.143,0.974-0.372,2.09-1.174,2.262
	c-0.429,0.085-0.629,0.085-0.858,0.085c-0.287,0-0.458,0.058-0.458,0.201c0,0.257,0.229,0.314,0.515,0.314
	c0.916,0,2.29-0.086,2.834-0.086c0.515,0,1.803,0.086,3.006,0.086c0.429,0,0.687-0.058,0.687-0.314c0-0.144-0.2-0.201-0.429-0.201
	c-0.287,0-0.687-0.028-1.202-0.143c-0.487-0.114-0.859-0.372-0.859-0.916c0-0.458,0.029-0.83,0.085-1.345l1.489-11.164h0.114
	c1.002,2.147,2.72,5.524,2.978,6.126c0.343,0.801,2.604,5.181,3.292,6.498c0.457,0.858,0.744,1.431,1.001,1.431
	c0.257,0,0.4-0.258,1.059-1.603l6.24-12.767h0.115l1.717,12.451c0.115,0.802,0.029,1.174-0.143,1.23
	c-0.2,0.086-0.314,0.172-0.314,0.315c0,0.172,0.171,0.258,0.83,0.314c1.145,0.086,5.095,0.144,5.811,0.144
	c0.4,0,0.744-0.086,0.744-0.314c0-0.173-0.2-0.201-0.458-0.201c-0.372,0-0.945-0.028-1.774-0.286
	c-0.859-0.258-1.145-1.087-1.403-2.891l-2.604-17.518c-0.085-0.602-0.257-0.888-0.515-0.888c-0.257,0-0.401,0.229-0.629,0.688
	l-7.786,16.116l-7.814-15.916c-0.372-0.745-0.544-0.888-0.773-0.888s-0.4,0.258-0.486,0.744L90.576,106.115z M75.664,95.638
	c0-4.351,0-5.152,0.058-6.068c0.057-1.001,0.286-1.488,1.059-1.631c0.343-0.057,0.802-0.086,1.116-0.086
	c0.344,0,0.515-0.057,0.515-0.258c0-0.2-0.2-0.257-0.601-0.257c-1.117,0-3.206,0.086-3.894,0.086c-0.772,0-2.576-0.086-3.921-0.086
	c-0.429,0-0.629,0.057-0.629,0.257c0,0.201,0.172,0.258,0.486,0.258c0.372,0,0.716,0.029,0.945,0.086
	c0.944,0.2,1.173,0.658,1.231,1.631c0.057,0.917,0.057,1.718,0.057,6.068v5.038c0,2.633,0,4.895-0.144,6.098
	c-0.114,0.829-0.257,1.459-0.83,1.573c-0.257,0.058-0.601,0.114-1.03,0.114c-0.343,0-0.458,0.086-0.458,0.229
	c0,0.2,0.2,0.286,0.572,0.286c0.573,0,1.316-0.058,1.975-0.058c0.688-0.028,1.317-0.028,1.632-0.028
	c1.173,0,2.204,0.028,3.492,0.086c1.288,0.028,2.776,0.086,4.838,0.086c1.488,0,1.631-0.144,1.803-0.772
	c0.229-0.83,0.429-2.978,0.429-3.292c0-0.344-0.029-0.486-0.229-0.486c-0.229,0-0.286,0.172-0.315,0.429
	c-0.057,0.544-0.401,1.346-0.745,1.718c-0.715,0.773-1.832,0.802-3.349,0.802c-2.232,0-2.977-0.2-3.463-0.63
	c-0.602-0.516-0.602-2.49-0.602-6.154V95.638z M50.821,100.247c-0.115,0-0.143-0.086-0.115-0.2l2.633-7.013
	c0.029-0.115,0.086-0.258,0.172-0.258s0.115,0.143,0.143,0.258l2.576,7.042c0.029,0.085,0,0.171-0.143,0.171H50.821z
	 M56.631,101.678c0.143,0,0.229,0.058,0.286,0.2l2.29,5.896c0.143,0.344-0.057,0.602-0.258,0.658
	c-0.286,0.028-0.401,0.086-0.401,0.258c0,0.2,0.344,0.2,0.859,0.229c2.29,0.058,4.379,0.058,5.41,0.058
	c1.059,0,1.317-0.058,1.317-0.286c0-0.2-0.143-0.229-0.373-0.229c-0.343,0-0.772-0.028-1.202-0.114
	c-0.602-0.143-1.431-0.543-2.519-3.12c-1.832-4.351-6.412-15.8-7.099-17.375c-0.286-0.658-0.458-0.916-0.715-0.916
	c-0.286,0-0.458,0.315-0.802,1.145l-7.185,17.747c-0.573,1.432-1.116,2.404-2.433,2.576c-0.229,0.028-0.63,0.057-0.887,0.057
	c-0.229,0-0.344,0.058-0.344,0.229c0,0.229,0.172,0.286,0.544,0.286c1.488,0,3.063-0.086,3.378-0.086
	c0.887,0,2.118,0.086,3.034,0.086c0.314,0,0.486-0.058,0.486-0.286c0-0.172-0.086-0.229-0.429-0.229h-0.43
	c-0.887,0-1.145-0.371-1.145-0.887c0-0.344,0.143-1.03,0.429-1.746l1.546-3.922c0.057-0.171,0.114-0.229,0.258-0.229H56.631z
	 M28.839,100.676c0,2.633,0,4.895-0.143,6.098c-0.114,0.829-0.257,1.459-0.83,1.573c-0.257,0.058-0.601,0.114-1.03,0.114
	c-0.343,0-0.458,0.086-0.458,0.229c0,0.2,0.201,0.286,0.573,0.286c1.145,0,2.948-0.086,3.606-0.086c0.744,0,2.547,0.086,4.437,0.086
	c0.315,0,0.544-0.086,0.544-0.286c0-0.144-0.143-0.229-0.458-0.229c-0.429,0-1.059-0.057-1.46-0.114
	c-0.858-0.114-1.03-0.744-1.116-1.545c-0.143-1.231-0.143-3.493-0.143-6.126v-11.45c0-0.315,0.086-0.487,0.229-0.544
	c0.258-0.086,0.687-0.114,1.117-0.114c0.658,0,1.832,0.171,2.862,1.116c1.603,1.431,1.689,3.349,1.689,4.294
	c0,2.919-2.233,4.722-3.836,4.722c-0.601,0-0.801,0.086-0.801,0.315c0,0.2,0.201,0.229,0.344,0.258
	c0.143,0.028,0.458,0.028,0.601,0.028c4.064,0,7.042-2.862,7.042-6.927c0-1.517-0.801-2.806-1.431-3.406
	c-0.458-0.43-1.746-1.632-5.324-1.632c-1.317,0-2.977,0.086-4.15,0.086c-0.802,0-2.604-0.086-4.122-0.086
	c-0.43,0-0.63,0.057-0.63,0.257c0,0.201,0.171,0.258,0.486,0.258c0.401,0,0.887,0.029,1.117,0.086c0.944,0.2,1.173,0.658,1.23,1.631
	c0.057,0.917,0.057,1.718,0.057,6.068V100.676z"/>
<path fill-rule="evenodd" clip-rule="evenodd" fill="#01318E" d="M211.77,102.871c0.478,0,0.982-0.081,1.433-0.369
	c0.648-0.423,0.847-1.045,0.847-1.567c0-0.855-0.388-1.477-1.478-2.297l-0.252-0.188c-0.748-0.568-0.955-0.883-0.955-1.297
	c0-0.541,0.405-0.928,1.072-0.928c0.585,0,0.847,0.27,0.981,0.441c0.189,0.234,0.234,0.513,0.234,0.594
	c0,0.108,0.027,0.162,0.09,0.162c0.072,0,0.1-0.072,0.1-0.27c0-0.703,0.036-0.964,0.036-1.081c0-0.063-0.045-0.09-0.126-0.108
	c-0.234-0.063-0.613-0.153-1.198-0.153c-1.252,0-2.081,0.711-2.081,1.703c0,0.73,0.343,1.36,1.333,2.134l0.415,0.324
	c0.747,0.586,0.882,1,0.882,1.441c0,0.478-0.396,1.027-1.206,1.027c-0.559,0-1.091-0.243-1.289-0.91
	c-0.045-0.153-0.08-0.342-0.08-0.459c0-0.072-0.01-0.153-0.091-0.153c-0.072,0-0.099,0.099-0.107,0.234
	c-0.01,0.144-0.045,0.685-0.045,1.18c0,0.198,0.026,0.243,0.171,0.307C210.842,102.808,211.247,102.871,211.77,102.871
	 M201.221,96.521c0-0.072,0.018-0.108,0.081-0.126c0.09-0.027,0.252-0.036,0.478-0.036c0.531,0,1.378,0.37,1.378,1.649
	c0,0.738-0.261,1.152-0.531,1.351c-0.162,0.117-0.279,0.153-0.64,0.153c-0.226,0-0.496-0.027-0.685-0.09
	c-0.063-0.027-0.081-0.063-0.081-0.162V96.521z M200.157,100.132c0,0.829,0,1.541-0.045,1.919c-0.036,0.262-0.081,0.459-0.261,0.495
	c-0.081,0.019-0.189,0.036-0.324,0.036c-0.108,0-0.145,0.027-0.145,0.072c0,0.063,0.063,0.09,0.181,0.09
	c0.359,0,0.928-0.026,1.099-0.026c0.135,0,0.802,0.026,1.324,0.026c0.117,0,0.18-0.026,0.18-0.09c0-0.045-0.035-0.072-0.107-0.072
	c-0.108,0-0.307-0.018-0.441-0.036c-0.271-0.036-0.325-0.233-0.352-0.495c-0.045-0.378-0.045-1.09-0.045-1.928v-0.126
	c0-0.054,0.026-0.072,0.071-0.072l0.784,0.019c0.063,0,0.117,0.009,0.162,0.063c0.117,0.136,0.531,0.748,0.892,1.243
	c0.505,0.693,0.847,1.117,1.234,1.324c0.234,0.126,0.459,0.171,0.964,0.171h0.855c0.108,0,0.171-0.018,0.171-0.09
	c0-0.045-0.036-0.072-0.107-0.072c-0.072,0-0.153-0.009-0.253-0.026c-0.135-0.027-0.504-0.091-1.009-0.613
	c-0.531-0.558-1.152-1.359-1.954-2.368c0.909-0.739,1.188-1.352,1.188-2.018c0-0.604-0.36-1.063-0.612-1.234
	c-0.486-0.333-1.09-0.387-1.657-0.387c-0.279,0-0.964,0.027-1.271,0.027c-0.188,0-0.757-0.027-1.233-0.027
	c-0.136,0-0.198,0.018-0.198,0.081s0.054,0.081,0.153,0.081c0.126,0,0.278,0.009,0.351,0.027c0.298,0.063,0.369,0.207,0.388,0.513
	c0.018,0.288,0.018,0.541,0.018,1.91V100.132z M190.338,100.132c0,0.829,0,1.541-0.045,1.919c-0.036,0.262-0.081,0.459-0.262,0.495
	c-0.081,0.019-0.188,0.036-0.324,0.036c-0.107,0-0.144,0.027-0.144,0.072c0,0.063,0.063,0.09,0.18,0.09
	c0.181,0,0.414-0.018,0.622-0.018c0.216-0.009,0.414-0.009,0.513-0.009c0.271,0,0.55,0.009,0.938,0.026
	c0.387,0.01,0.883,0.027,1.558,0.027c0.343,0,0.424,0,0.486-0.234c0.046-0.18,0.117-0.793,0.117-1c0-0.09,0-0.162-0.071-0.162
	c-0.063,0-0.082,0.036-0.1,0.136c-0.063,0.369-0.171,0.559-0.405,0.666c-0.234,0.108-0.612,0.108-0.847,0.108
	c-0.919,0-1.063-0.135-1.081-0.757c-0.009-0.261,0-1.09,0-1.396v-0.711c0-0.055,0.009-0.09,0.054-0.09
	c0.217,0,1.108,0.009,1.279,0.026c0.333,0.036,0.46,0.172,0.505,0.352c0.026,0.117,0.026,0.234,0.036,0.324
	c0,0.045,0.018,0.081,0.081,0.081c0.081,0,0.081-0.099,0.081-0.171c0-0.063,0.026-0.424,0.036-0.604
	c0.035-0.46,0.071-0.604,0.071-0.658c0-0.054-0.026-0.071-0.063-0.071c-0.045,0-0.081,0.045-0.145,0.117
	c-0.081,0.09-0.216,0.116-0.433,0.135c-0.207,0.018-1.242,0.018-1.44,0.018c-0.055,0-0.063-0.036-0.063-0.099v-2.279
	c0-0.063,0.019-0.09,0.063-0.09c0.18,0,1.126,0.018,1.278,0.036c0.451,0.054,0.541,0.162,0.604,0.324
	c0.046,0.108,0.055,0.261,0.055,0.324c0,0.081,0.018,0.126,0.081,0.126c0.063,0,0.081-0.054,0.09-0.099
	c0.018-0.108,0.036-0.504,0.045-0.594c0.027-0.415,0.072-0.522,0.072-0.585c0-0.045-0.009-0.081-0.054-0.081
	c-0.046,0-0.1,0.027-0.145,0.036c-0.072,0.018-0.216,0.036-0.388,0.054c-0.171,0.009-1.963,0.009-2.252,0.009
	c-0.126,0-0.333-0.009-0.567-0.018c-0.225,0-0.486-0.009-0.729-0.009c-0.135,0-0.198,0.018-0.198,0.081s0.055,0.081,0.153,0.081
	c0.126,0,0.279,0.009,0.352,0.027c0.297,0.063,0.369,0.207,0.387,0.513c0.019,0.288,0.019,0.541,0.019,1.91V100.132z
	 M178.089,97.764h0.027c0.162,0.171,1.162,1.27,2.142,2.243c0.938,0.928,2.09,2.108,2.656,2.648c0.099,0.1,0.207,0.198,0.306,0.198
	c0.081,0,0.117-0.081,0.117-0.279l0.1-5.684c0.009-0.504,0.081-0.694,0.333-0.766c0.108-0.027,0.181-0.027,0.271-0.027
	c0.107,0,0.162-0.027,0.162-0.081c0-0.072-0.09-0.081-0.207-0.081c-0.441,0-0.784,0.027-0.883,0.027
	c-0.189,0-0.622-0.027-1.089-0.027c-0.135,0-0.234,0.009-0.234,0.081c0,0.054,0.036,0.081,0.145,0.081c0.126,0,0.343,0,0.476,0.054
	c0.217,0.09,0.298,0.261,0.307,0.811l0.09,4.044h-0.045c-0.153-0.144-1.367-1.441-1.98-2.054c-1.313-1.306-2.683-2.747-2.791-2.864
	c-0.154-0.162-0.235-0.279-0.334-0.279c-0.09,0-0.117,0.126-0.117,0.306l-0.081,5.305c-0.009,0.784-0.045,1.045-0.279,1.117
	c-0.126,0.036-0.288,0.045-0.405,0.045c-0.091,0-0.145,0.019-0.145,0.072c0,0.081,0.081,0.09,0.198,0.09
	c0.469,0,0.892-0.026,0.973-0.026c0.173,0,0.533,0.026,1.118,0.026c0.127,0,0.208-0.018,0.208-0.09c0-0.054-0.055-0.072-0.153-0.072
	c-0.145,0-0.315-0.009-0.469-0.063c-0.18-0.063-0.297-0.298-0.314-1L178.089,97.764z M168.356,100.132c0,0.829,0,1.541-0.045,1.919
	c-0.027,0.262-0.081,0.459-0.262,0.495c-0.081,0.019-0.189,0.036-0.324,0.036c-0.108,0-0.145,0.027-0.145,0.072
	c0,0.063,0.063,0.09,0.181,0.09c0.36,0,0.928-0.026,1.135-0.026c0.252,0,0.819,0.026,1.414,0.026c0.1,0,0.171-0.026,0.171-0.09
	c0-0.045-0.045-0.072-0.144-0.072c-0.136,0-0.333-0.018-0.46-0.036c-0.27-0.036-0.324-0.233-0.351-0.486
	c-0.045-0.387-0.045-1.099-0.045-1.928v-3.693l1.135,0.027c0.802,0.018,1.045,0.27,1.063,0.504l0.009,0.099
	c0.01,0.135,0.027,0.18,0.1,0.18c0.054,0,0.072-0.054,0.081-0.144c0-0.234,0.027-0.856,0.027-1.045c0-0.135-0.01-0.189-0.072-0.189
	c-0.036,0-0.108,0.018-0.243,0.045c-0.136,0.018-0.334,0.045-0.622,0.045h-3.566c-0.298,0-0.64-0.018-0.901-0.045
	c-0.225-0.018-0.314-0.108-0.387-0.108c-0.055,0-0.081,0.054-0.108,0.171c-0.018,0.072-0.189,0.892-0.189,1.036
	c0,0.099,0.019,0.145,0.081,0.145c0.055,0,0.081-0.037,0.1-0.108c0.018-0.072,0.063-0.18,0.153-0.315
	c0.135-0.198,0.351-0.243,0.873-0.261l1.343-0.036V100.132z M157.636,96.521c0-0.072,0.018-0.108,0.081-0.126
	c0.09-0.027,0.252-0.036,0.478-0.036c0.531,0,1.378,0.37,1.378,1.649c0,0.738-0.261,1.152-0.531,1.351
	c-0.162,0.117-0.279,0.153-0.64,0.153c-0.226,0-0.496-0.027-0.685-0.09c-0.063-0.027-0.081-0.063-0.081-0.162V96.521z
	 M156.572,100.132c0,0.829,0,1.541-0.045,1.919c-0.036,0.262-0.081,0.459-0.261,0.495c-0.081,0.019-0.189,0.036-0.324,0.036
	c-0.108,0-0.145,0.027-0.145,0.072c0,0.063,0.063,0.09,0.181,0.09c0.36,0,0.928-0.026,1.099-0.026c0.135,0,0.802,0.026,1.324,0.026
	c0.117,0,0.18-0.026,0.18-0.09c0-0.045-0.036-0.072-0.108-0.072c-0.107,0-0.306-0.018-0.44-0.036
	c-0.271-0.036-0.325-0.233-0.352-0.495c-0.045-0.378-0.045-1.09-0.045-1.928v-0.126c0-0.054,0.026-0.072,0.071-0.072l0.784,0.019
	c0.063,0,0.117,0.009,0.162,0.063c0.117,0.136,0.531,0.748,0.892,1.243c0.505,0.693,0.847,1.117,1.234,1.324
	c0.234,0.126,0.459,0.171,0.964,0.171h0.855c0.108,0,0.171-0.018,0.171-0.09c0-0.045-0.035-0.072-0.107-0.072
	s-0.153-0.009-0.253-0.026c-0.135-0.027-0.504-0.091-1.009-0.613c-0.531-0.558-1.152-1.359-1.954-2.368
	c0.909-0.739,1.188-1.352,1.188-2.018c0-0.604-0.36-1.063-0.612-1.234c-0.486-0.333-1.09-0.387-1.657-0.387
	c-0.279,0-0.964,0.027-1.271,0.027c-0.188,0-0.756-0.027-1.233-0.027c-0.136,0-0.198,0.018-0.198,0.081s0.054,0.081,0.152,0.081
	c0.127,0,0.279,0.009,0.352,0.027c0.298,0.063,0.369,0.207,0.388,0.513c0.018,0.288,0.018,0.541,0.018,1.91V100.132z
	 M146.681,99.998c-0.036,0-0.045-0.027-0.036-0.063l0.829-2.207c0.009-0.037,0.027-0.081,0.054-0.081
	c0.027,0,0.036,0.044,0.045,0.081l0.811,2.216c0.01,0.026,0,0.054-0.045,0.054H146.681z M148.51,100.448
	c0.045,0,0.071,0.019,0.09,0.063l0.721,1.855c0.045,0.108-0.019,0.189-0.081,0.207c-0.091,0.009-0.126,0.027-0.126,0.081
	c0,0.063,0.107,0.063,0.27,0.072c0.721,0.018,1.378,0.018,1.703,0.018c0.333,0,0.414-0.018,0.414-0.09
	c0-0.063-0.045-0.072-0.117-0.072c-0.108,0-0.243-0.009-0.379-0.036c-0.188-0.045-0.45-0.171-0.792-0.981
	c-0.576-1.369-2.018-4.972-2.234-5.468c-0.09-0.207-0.144-0.288-0.225-0.288c-0.091,0-0.145,0.099-0.252,0.36l-2.262,5.585
	c-0.18,0.45-0.352,0.756-0.766,0.811c-0.072,0.009-0.198,0.018-0.279,0.018c-0.072,0-0.107,0.019-0.107,0.072
	c0,0.072,0.054,0.09,0.171,0.09c0.468,0,0.964-0.026,1.063-0.026c0.279,0,0.667,0.026,0.955,0.026c0.1,0,0.153-0.018,0.153-0.09
	c0-0.054-0.027-0.072-0.135-0.072h-0.136c-0.279,0-0.36-0.117-0.36-0.279c0-0.107,0.045-0.324,0.136-0.549l0.486-1.234
	c0.018-0.054,0.036-0.072,0.081-0.072H148.51z M136.563,100.132c0,0.829,0,1.541-0.045,1.919c-0.036,0.262-0.081,0.459-0.261,0.495
	c-0.081,0.019-0.189,0.036-0.324,0.036c-0.108,0-0.145,0.027-0.145,0.072c0,0.063,0.063,0.09,0.18,0.09
	c0.36,0,0.928-0.026,1.136-0.026c0.233,0,0.802,0.026,1.396,0.026c0.1,0,0.172-0.026,0.172-0.09c0-0.045-0.046-0.072-0.145-0.072
	c-0.135,0-0.333-0.018-0.459-0.036c-0.271-0.036-0.324-0.233-0.352-0.486c-0.045-0.387-0.045-1.099-0.045-1.928V96.53
	c0-0.099,0.026-0.153,0.072-0.171c0.08-0.027,0.216-0.036,0.351-0.036c0.207,0,0.577,0.054,0.901,0.352
	c0.504,0.45,0.531,1.054,0.531,1.351c0,0.919-0.703,1.486-1.207,1.486c-0.189,0-0.252,0.027-0.252,0.099
	c0,0.063,0.063,0.072,0.107,0.082c0.045,0.009,0.145,0.009,0.189,0.009c1.279,0,2.216-0.901,2.216-2.18
	c0-0.478-0.252-0.883-0.45-1.072c-0.145-0.135-0.55-0.514-1.676-0.514c-0.414,0-0.937,0.027-1.306,0.027
	c-0.253,0-0.82-0.027-1.297-0.027c-0.136,0-0.198,0.018-0.198,0.081s0.054,0.081,0.152,0.081c0.127,0,0.279,0.009,0.352,0.027
	c0.298,0.063,0.369,0.207,0.388,0.513c0.018,0.288,0.018,0.541,0.018,1.91V100.132z"/>
<path fill-rule="evenodd" clip-rule="evenodd" fill="#01318E" d="M126.233,67.772c-0.229,0-0.416,13.533-0.416,30.228
	s0.187,30.228,0.416,30.228s0.415-13.533,0.415-30.228S126.463,67.772,126.233,67.772"/>
</svg>
